<svg width="93" height="60" viewBox="0 0 93 60" fill="none" xmlns="http://www.w3.org/2000/svg">
<path fill-rule="evenodd" clip-rule="evenodd" d="M60.4322 53.6758L58.5859 59.9934H62.3673L60.5074 53.6758H60.4322Z" fill="#191919"/>
<path fill-rule="evenodd" clip-rule="evenodd" d="M40.625 57.3752V59.9934H44.2764L41.6712 56.1035L40.625 57.3752Z" fill="#191919"/>
<path fill-rule="evenodd" clip-rule="evenodd" d="M71.8861 52.499L70.6484 56.2937H73.2058L71.9613 52.499H71.8861Z" fill="#191919"/>
<path fill-rule="evenodd" clip-rule="evenodd" d="M69.4307 59.9931H74.4155L73.7386 57.9326H70.1145L69.4307 59.9931Z" fill="#191919"/>
<path fill-rule="evenodd" clip-rule="evenodd" d="M3.9318 50.2144C4.54722 50.2144 5.0669 50.2688 5.49769 50.3708C5.92164 50.4796 6.26353 50.636 6.53021 50.8468C6.79005 51.0576 6.98152 51.3228 7.09776 51.6424C7.214 51.9689 7.26871 52.3497 7.26871 52.7849C7.26871 53.1385 7.22768 53.4514 7.13195 53.7166C7.04306 53.9886 6.91314 54.213 6.75586 54.4034C6.59175 54.5938 6.40029 54.7434 6.18148 54.8591C5.95583 54.9747 5.7165 55.0631 5.45666 55.1243C5.73701 55.1379 6.01737 55.1855 6.28405 55.2671C6.55073 55.3487 6.78322 55.4847 6.98835 55.6615C7.19349 55.8451 7.3576 56.0831 7.48068 56.3755C7.60377 56.668 7.66531 57.0284 7.66531 57.4568C7.66531 57.9192 7.60377 58.3205 7.47385 58.6605C7.35076 59.0073 7.14563 59.2997 6.87211 59.5309C6.63278 59.7282 6.32508 59.8846 5.96267 59.9934H9.47736V50.2144H11.5971V58.4769H15.9734V59.9934H17.7102L21.1018 50.2144H23.8438L27.2286 59.9934H30.3125C29.786 59.7894 29.3347 59.4969 28.9586 59.1025C28.5551 58.6809 28.2474 58.1437 28.0355 57.5044C27.8235 56.8584 27.7209 56.0967 27.7209 55.2195C27.7209 54.3422 27.8235 53.5806 28.0423 52.9345C28.2611 52.2953 28.5688 51.7581 28.9723 51.3296C29.3757 50.908 29.868 50.5952 30.4424 50.3844C31.0236 50.1804 31.6732 50.0784 32.4049 50.0784C33.0477 50.0784 33.622 50.16 34.1281 50.3232C34.6341 50.4864 35.0717 50.7244 35.4409 51.0304C35.8102 51.3432 36.1042 51.7309 36.3299 52.1797C36.5487 52.6353 36.6991 53.1453 36.7675 53.7234H34.6135C34.5794 53.4514 34.5041 53.2065 34.4084 52.9821C34.3058 52.7645 34.1691 52.5809 33.9981 52.4245C33.8272 52.2749 33.6152 52.1593 33.3622 52.0777C33.1092 51.9961 32.8015 51.9553 32.4528 51.9553C32.0015 51.9553 31.6117 52.0165 31.2835 52.1389C30.9621 52.2613 30.6954 52.4517 30.4903 52.7169C30.2783 52.9821 30.121 53.3222 30.0253 53.7302C29.9227 54.145 29.8749 54.6414 29.8749 55.2195C29.8749 55.8179 29.9227 56.3211 30.0253 56.736C30.1279 57.1508 30.2851 57.4908 30.4903 57.7492C30.7023 58.0076 30.9689 58.1981 31.2903 58.3137C31.6117 58.4293 31.9946 58.4905 32.4391 58.4905C32.781 58.4905 33.075 58.4497 33.328 58.3749C33.581 58.3001 33.793 58.1913 33.9639 58.0485C34.1417 57.8988 34.2785 57.722 34.3811 57.518C34.4905 57.3072 34.5657 57.0692 34.6135 56.804L36.7675 56.8108C36.7265 57.1168 36.6581 57.4228 36.5555 57.7152C36.4598 58.0076 36.323 58.2865 36.1589 58.5517C35.9948 58.8101 35.7897 59.0549 35.5572 59.2725C35.3179 59.4969 35.0443 59.6874 34.7366 59.8506C34.6341 59.905 34.5247 59.9526 34.4084 59.9934H38.4975V50.2144H40.6241V54.6346H40.754L44.3713 50.2144H46.9218L43.1883 54.7026L46.2038 59.1025H56.1393L53.5819 50.2144H55.9068L57.5684 57.1712H57.6505L59.4899 50.2144H61.4729L63.3055 57.1848H63.3943L65.056 50.2144H67.3809L64.5705 59.9934H67.1689L70.5605 50.2144H73.3025L76.6873 59.9934H77.7608V50.2144H79.8874V58.4769H84.1953V59.9934H85.7065V50.2144H87.8331V58.4769H92.0931L92.2367 0L0 43.3391V50.2144H3.9318Z" fill="#191919"/>
<path fill-rule="evenodd" clip-rule="evenodd" d="M2.03027 58.491H3.77394C4.12951 58.491 4.42354 58.4774 4.64236 58.4366C4.86801 58.4026 5.03896 58.3414 5.16204 58.2462C5.28512 58.151 5.36718 58.0218 5.41504 57.8586C5.45607 57.7021 5.47658 57.4981 5.47658 57.2465C5.47658 56.9813 5.44923 56.7501 5.39453 56.5733C5.33983 56.3897 5.25093 56.2469 5.12101 56.1381C4.99793 56.0292 4.82698 55.9476 4.61501 55.9C4.40303 55.8524 4.13635 55.832 3.82181 55.832H2.03027V58.491Z" fill="#191919"/>
<path fill-rule="evenodd" clip-rule="evenodd" d="M4.79279 54.1583C4.90904 54.0699 4.99793 53.9407 5.05263 53.7707C5.10734 53.6074 5.13469 53.3898 5.13469 53.1314C5.13469 52.8866 5.11417 52.6894 5.06631 52.533C5.02528 52.3766 4.95006 52.2542 4.84066 52.1657C4.73125 52.0705 4.58082 52.0093 4.38935 51.9753C4.19789 51.9413 3.95173 51.9277 3.6577 51.9277H2.03027V54.4099H3.61667C3.89019 54.4099 4.12951 54.3895 4.32098 54.3555C4.51244 54.3147 4.66971 54.2535 4.79279 54.1583Z" fill="#191919"/>
<path fill-rule="evenodd" clip-rule="evenodd" d="M22.4418 52.499L21.1973 56.2937H23.7546L22.5238 52.499H22.4418Z" fill="#191919"/>
<path fill-rule="evenodd" clip-rule="evenodd" d="M19.9883 59.9931H24.9663L24.2893 57.9326H20.6584L19.9883 59.9931Z" fill="#191919"/>
</svg>
