<svg width="93" height="60" viewBox="0 0 93 60" fill="none" xmlns="http://www.w3.org/2000/svg">
<g clip-path="url(#clip0_260_317)">
<path fill-rule="evenodd" clip-rule="evenodd" d="M60.4322 53.6758L58.586 59.9934H62.3674L60.5075 53.6758H60.4322Z" fill="white"/>
<path fill-rule="evenodd" clip-rule="evenodd" d="M40.6251 57.3752V59.9934H44.2765L41.6713 56.1035L40.6251 57.3752Z" fill="white"/>
<path fill-rule="evenodd" clip-rule="evenodd" d="M71.8862 52.499L70.6485 56.2937H73.2059L71.9614 52.499H71.8862Z" fill="white"/>
<path fill-rule="evenodd" clip-rule="evenodd" d="M69.4307 59.9931H74.4156L73.7386 57.9326H70.1145L69.4307 59.9931Z" fill="white"/>
<path fill-rule="evenodd" clip-rule="evenodd" d="M3.93186 50.2144C4.54728 50.2144 5.06696 50.2688 5.49775 50.3708C5.9217 50.4796 6.26359 50.636 6.53027 50.8468C6.79011 51.0576 6.98158 51.3228 7.09782 51.6424C7.21407 51.9689 7.26877 52.3497 7.26877 52.7849C7.26877 53.1385 7.22774 53.4514 7.13201 53.7166C7.04312 53.9886 6.9132 54.213 6.75592 54.4034C6.59181 54.5938 6.40035 54.7434 6.18154 54.859C5.95589 54.9747 5.71656 55.0631 5.45672 55.1243C5.73707 55.1379 6.01743 55.1855 6.28411 55.2671C6.55079 55.3487 6.78328 55.4847 6.98841 55.6615C7.19355 55.8451 7.35766 56.0831 7.48074 56.3755C7.60383 56.668 7.66537 57.0284 7.66537 57.4568C7.66537 57.9192 7.60383 58.3205 7.47391 58.6605C7.35082 59.0073 7.14569 59.2997 6.87217 59.5309C6.63284 59.7282 6.32514 59.8846 5.96273 59.9934H9.47742V50.2144H11.5972V58.4769H15.9734V59.9934H17.7103L21.1019 50.2144H23.8439L27.2287 59.9934H30.3126C29.786 59.7894 29.3347 59.4969 28.9586 59.1025C28.5552 58.6809 28.2475 58.1437 28.0355 57.5044C27.8236 56.8584 27.721 56.0967 27.721 55.2195C27.721 54.3422 27.8236 53.5806 28.0424 52.9345C28.2612 52.2953 28.5689 51.7581 28.9723 51.3296C29.3758 50.908 29.8681 50.5952 30.4425 50.3844C31.0237 50.1804 31.6733 50.0783 32.405 50.0783C33.0477 50.0783 33.6221 50.16 34.1281 50.3232C34.6341 50.4864 35.0717 50.7244 35.441 51.0304C35.8102 51.3432 36.1043 51.7309 36.3299 52.1797C36.5487 52.6353 36.6992 53.1453 36.7676 53.7234H34.6136C34.5794 53.4514 34.5042 53.2065 34.4085 52.9821C34.3059 52.7645 34.1691 52.5809 33.9982 52.4245C33.8272 52.2749 33.6153 52.1593 33.3623 52.0777C33.1093 51.9961 32.8016 51.9553 32.4528 51.9553C32.0015 51.9553 31.6118 52.0165 31.2835 52.1389C30.9622 52.2613 30.6955 52.4517 30.4903 52.7169C30.2784 52.9821 30.1211 53.3222 30.0254 53.7302C29.9228 54.145 29.8749 54.6414 29.8749 55.2195C29.8749 55.8179 29.9228 56.3211 30.0254 56.736C30.1279 57.1508 30.2852 57.4908 30.4903 57.7492C30.7023 58.0076 30.969 58.1981 31.2904 58.3137C31.6118 58.4293 31.9947 58.4905 32.4391 58.4905C32.781 58.4905 33.0751 58.4497 33.3281 58.3749C33.5811 58.3001 33.7931 58.1913 33.964 58.0484C34.1418 57.8988 34.2785 57.722 34.3811 57.518C34.4905 57.3072 34.5657 57.0692 34.6136 56.804L36.7676 56.8108C36.7265 57.1168 36.6581 57.4228 36.5556 57.7152C36.4598 58.0076 36.3231 58.2865 36.159 58.5517C35.9949 58.8101 35.7897 59.0549 35.5572 59.2725C35.3179 59.4969 35.0444 59.6874 34.7367 59.8506C34.6341 59.905 34.5247 59.9526 34.4085 59.9934H38.4975V50.2144H40.6241V54.6346H40.7541L44.3713 50.2144H46.9219L43.1884 54.7026L46.2039 59.1025H56.1394L53.582 50.2144H55.9069L57.5685 57.1712H57.6506L59.49 50.2144H61.473L63.3055 57.1848H63.3944L65.056 50.2144H67.3809L64.5705 59.9934H67.1689L70.5605 50.2144H73.3026L76.6873 59.9934H77.7609V50.2144H79.8875V58.4769H84.1954V59.9934H85.7065V50.2144H87.8331V58.4769H92.0932L92.2367 0L6.10352e-05 43.3391V50.2144H3.93186Z" fill="white"/>
<path fill-rule="evenodd" clip-rule="evenodd" d="M2.03033 58.491H3.774C4.12958 58.491 4.42361 58.4774 4.64242 58.4366C4.86807 58.4026 5.03902 58.3414 5.1621 58.2462C5.28518 58.151 5.36724 58.0218 5.4151 57.8586C5.45613 57.7021 5.47665 57.4981 5.47665 57.2465C5.47665 56.9813 5.44929 56.7501 5.39459 56.5733C5.33989 56.3897 5.25099 56.2469 5.12107 56.1381C4.99799 56.0292 4.82704 55.9476 4.61507 55.9C4.40309 55.8524 4.13641 55.832 3.82187 55.832H2.03033V58.491Z" fill="white"/>
<path fill-rule="evenodd" clip-rule="evenodd" d="M4.79285 54.1583C4.9091 54.0699 4.99799 53.9407 5.05269 53.7707C5.1074 53.6074 5.13475 53.3898 5.13475 53.1314C5.13475 52.8866 5.11424 52.6894 5.06637 52.533C5.02534 52.3766 4.95013 52.2542 4.84072 52.1657C4.73131 52.0705 4.58088 52.0093 4.38942 51.9753C4.19795 51.9413 3.95179 51.9277 3.65776 51.9277H2.03033V54.4099H3.61673C3.89025 54.4099 4.12958 54.3895 4.32104 54.3555C4.5125 54.3147 4.66977 54.2535 4.79285 54.1583Z" fill="white"/>
<path fill-rule="evenodd" clip-rule="evenodd" d="M22.4418 52.499L21.1973 56.2937H23.7547L22.5239 52.499H22.4418Z" fill="white"/>
<path fill-rule="evenodd" clip-rule="evenodd" d="M19.9883 59.9931H24.9663L24.2894 57.9326H20.6585L19.9883 59.9931Z" fill="white"/>
</g>
<defs>
<clipPath id="clip0_260_317">
<rect width="92.25" height="60" fill="white"/>
</clipPath>
</defs>
</svg>
